<?xml version="1.0" encoding="UTF-8" standalone="no"?>
<svg width="41px" height="48px" viewBox="0 0 41 48" version="1.1" xmlns="http://www.w3.org/2000/svg" xmlns:xlink="http://www.w3.org/1999/xlink">
    <!-- Generator: Sketch 39.1 (31720) - http://www.bohemiancoding.com/sketch -->
    <title>Group 2</title>
    <desc>Created with Sketch.</desc>
    <defs>
        <rect id="path-1" x="0" y="0" width="43" height="57"></rect>
    </defs>
    <g id="Page-1" stroke="none" stroke-width="1" fill="none" fill-rule="evenodd">
        <g id="Group-2" transform="translate(0.000000, -4.000000)">
            <mask id="mask-2" fill="white">
                <use xlink:href="#path-1"></use>
            </mask>
            <g id="Rectangle"></g>
            <path d="M1,40 C1,40 1.58248698,27.1725911 2.5,20.75 C3.41582031,14.3392578 6.5,9.5 6.5,9.5 C6.5,9.5 5.29009857,16.5980065 5.5,23 C5.62343191,26.7646732 7.5,32 7.5,32 L1,40 Z" id="Path-3" fill="#2D793D" mask="url(#mask-2)"></path>
            <path d="M4,37 C4,37 4.58248698,24.1725911 5.5,17.75 C6.41582031,11.3392578 9.5,6.5 9.5,6.5 C9.5,6.5 8.29009857,13.5980065 8.5,20 C8.62343191,23.7646732 10.5,29 10.5,29 L4,37 Z" id="Path-3" fill="#358B46" mask="url(#mask-2)"></path>
            <path d="M6,39 C6,39 6.58248698,26.1725911 7.5,19.75 C8.41582031,13.3392578 11.5,8.5 11.5,8.5 C11.5,8.5 10.2900986,15.5980065 10.5,22 C10.6234319,25.7646732 12.5,31 12.5,31 L6,39 Z" id="Path-3" fill="#306C3C" mask="url(#mask-2)"></path>
            <path d="M9,35 C9,35 9.58248698,22.1725911 10.5,15.75 C11.4158203,9.33925781 14.5,4.5 14.5,4.5 C14.5,4.5 13.2900986,11.5980065 13.5,18 C13.6234319,21.7646732 15.5,27 15.5,27 L9,35 Z" id="Path-3" fill="#306C3C" mask="url(#mask-2)"></path>
            <path d="M10,40 C10,40 10.582487,27.1725911 11.5,20.75 C12.4158203,14.3392578 15.5,9.5 15.5,9.5 C15.5,9.5 14.2900986,16.5980065 14.5,23 C14.6234319,26.7646732 16.5,32 16.5,32 L10,40 Z" id="Path-3" fill="#358B46" mask="url(#mask-2)"></path>
            <path d="M13,37 C13,37 13.582487,24.1725911 14.5,17.75 C15.4158203,11.3392578 18.5,6.5 18.5,6.5 C18.5,6.5 17.2900986,13.5980065 17.5,20 C17.6234319,23.7646732 19.5,29 19.5,29 L13,37 Z" id="Path-3" fill="#2D793D" mask="url(#mask-2)"></path>
            <path d="M15,39 C15,39 15.582487,26.1725911 16.5,19.75 C17.4158203,13.3392578 20.5,8.5 20.5,8.5 C20.5,8.5 19.2900986,15.5980065 19.5,22 C19.6234319,25.7646732 21.5,31 21.5,31 L15,39 Z" id="Path-3" fill="#358B46" mask="url(#mask-2)"></path>
            <path d="M18,36 C18,36 18.582487,23.1725911 19.5,16.75 C20.4158203,10.3392578 23.5,5.5 23.5,5.5 C23.5,5.5 22.2900986,12.5980065 22.5,19 C22.6234319,22.7646732 24.5,28 24.5,28 L18,36 Z" id="Path-3" fill="#306C3C" mask="url(#mask-2)"></path>
            <path d="M20,39 C20,39 20.582487,26.1725911 21.5,19.75 C22.4158203,13.3392578 25.5,8.5 25.5,8.5 C25.5,8.5 24.2900986,15.5980065 24.5,22 C24.6234319,25.7646732 26.5,31 26.5,31 L20,39 Z" id="Path-3" fill="#2D793D" mask="url(#mask-2)"></path>
            <path d="M22,38 C22,38 22.582487,25.1725911 23.5,18.75 C24.4158203,12.3392578 27.5,7.5 27.5,7.5 C27.5,7.5 26.2900986,14.5980065 26.5,21 C26.6234319,24.7646732 28.5,30 28.5,30 L22,38 Z" id="Path-3" fill="#306C3C" mask="url(#mask-2)"></path>
            <path d="M25,35 C25,35 25.582487,22.1725911 26.5,15.75 C27.4158203,9.33925781 30.5,4.5 30.5,4.5 C30.5,4.5 29.2900986,11.5980065 29.5,18 C29.6234319,21.7646732 31.5,27 31.5,27 L25,35 Z" id="Path-3" fill="#2D793D" mask="url(#mask-2)"></path>
            <path d="M27,38 C27,38 27.582487,25.1725911 28.5,18.75 C29.4158203,12.3392578 32.5,7.5 32.5,7.5 C32.5,7.5 31.2900986,14.5980065 31.5,21 C31.6234319,24.7646732 33.5,30 33.5,30 L27,38 Z" id="Path-3" fill="#306C3C" mask="url(#mask-2)"></path>
            <path d="M29,36 C29,36 29.582487,23.1725911 30.5,16.75 C31.4158203,10.3392578 34.5,5.5 34.5,5.5 C34.5,5.5 33.2900986,12.5980065 33.5,19 C33.6234319,22.7646732 35.5,28 35.5,28 L29,36 Z" id="Path-3" fill="#358B46" mask="url(#mask-2)"></path>
            <path d="M31,38 C31,38 31.582487,25.1725911 32.5,18.75 C33.4158203,12.3392578 36.5,7.5 36.5,7.5 C36.5,7.5 35.2900986,14.5980065 35.5,21 C35.6234319,24.7646732 37.5,30 37.5,30 L31,38 Z" id="Path-3" fill="#2D793D" mask="url(#mask-2)"></path>
            <path d="M32,40 C32,40 32.582487,27.1725911 33.5,20.75 C34.4158203,14.3392578 37.5,9.5 37.5,9.5 C37.5,9.5 36.2900986,16.5980065 36.5,23 C36.6234319,26.7646732 38.5,32 38.5,32 L32,40 Z" id="Path-3" fill="#306C3C" mask="url(#mask-2)"></path>
            <path d="M35.5,41 C35.5,41 36.0083523,28.1725911 36.809091,21.75 C37.6083524,15.3392578 40.3000002,10.5 40.3000002,10.5 C40.3000002,10.5 39.2440862,17.5980065 39.4272729,24 C39.5349953,27.7646732 35.5,41 35.5,41 Z" id="Path-3" fill="#306C3C" mask="url(#mask-2)"></path>
            <path d="M34,37 C34,37 34.582487,24.1725911 35.5,17.75 C36.4158203,11.3392578 39.5,6.5 39.5,6.5 C39.5,6.5 38.2900986,13.5980065 38.5,20 C38.6234319,23.7646732 34,37 34,37 Z" id="Path-3" fill="#306C3C" mask="url(#mask-2)"></path>
            <path d="M3.29610819,38 C3.29610819,38 0.582486979,25.1725911 1.5,18.75 C2.41582031,12.3392578 5.5,7.5 5.5,7.5 C5.5,7.5 4.29009857,14.5980065 4.5,21 C4.62343191,24.7646732 3.29610819,38 3.29610819,38 Z" id="Path-3" fill="#358B46" mask="url(#mask-2)"></path>
            <path d="M1.51159685,36 C1.51159685,36 -0.554293705,23.1725911 0.144212584,16.75 C0.841430207,10.3392578 3.18942839,5.5 3.18942839,5.5 C3.18942839,5.5 2.26832565,12.5980065 2.42812444,19 C2.52209364,22.7646732 1.51159685,36 1.51159685,36 Z" id="Path-3" fill="#306C3C" mask="url(#mask-2)"></path>
            <path d="M1,50 C1,50 1.58248698,37.1725911 2.5,30.75 C3.41582031,24.3392578 6.5,19.5 6.5,19.5 C6.5,19.5 5.29009857,26.5980065 5.5,33 C5.62343191,36.7646732 7.5,42 7.5,42 L1,50 Z" id="Path-3" fill="#306C3C" mask="url(#mask-2)"></path>
            <path d="M4,47 C4,47 4.58248698,34.1725911 5.5,27.75 C6.41582031,21.3392578 9.5,16.5 9.5,16.5 C9.5,16.5 8.29009857,23.5980065 8.5,30 C8.62343191,33.7646732 10.5,39 10.5,39 L4,47 Z" id="Path-3" fill="#2D793C" mask="url(#mask-2)"></path>
            <path d="M6,49 C6,49 6.58248698,36.1725911 7.5,29.75 C8.41582031,23.3392578 11.5,18.5 11.5,18.5 C11.5,18.5 10.2900986,25.5980065 10.5,32 C10.6234319,35.7646732 12.5,41 12.5,41 L6,49 Z" id="Path-3" fill="#2D793D" mask="url(#mask-2)"></path>
            <path d="M9,45 C9,45 9.58248698,32.1725911 10.5,25.75 C11.4158203,19.3392578 14.5,14.5 14.5,14.5 C14.5,14.5 13.2900986,21.5980065 13.5,28 C13.6234319,31.7646732 15.5,37 15.5,37 L9,45 Z" id="Path-3" fill="#306C3C" mask="url(#mask-2)"></path>
            <path d="M10,50 C10,50 10.582487,37.1725911 11.5,30.75 C12.4158203,24.3392578 15.5,19.5 15.5,19.5 C15.5,19.5 14.2900986,26.5980065 14.5,33 C14.6234319,36.7646732 16.5,42 16.5,42 L10,50 Z" id="Path-3" fill="#2D793C" mask="url(#mask-2)"></path>
            <path d="M13,47 C13,47 13.582487,34.1725911 14.5,27.75 C15.4158203,21.3392578 18.5,16.5 18.5,16.5 C18.5,16.5 17.2900986,23.5980065 17.5,30 C17.6234319,33.7646732 19.5,39 19.5,39 L13,47 Z" id="Path-3" fill="#2D793D" mask="url(#mask-2)"></path>
            <path d="M15,49 C15,49 15.582487,36.1725911 16.5,29.75 C17.4158203,23.3392578 20.5,18.5 20.5,18.5 C20.5,18.5 19.2900986,25.5980065 19.5,32 C19.6234319,35.7646732 21.5,41 21.5,41 L15,49 Z" id="Path-3" fill="#2D793C" mask="url(#mask-2)"></path>
            <path d="M18,46 C18,46 18.582487,33.1725911 19.5,26.75 C20.4158203,20.3392578 23.5,15.5 23.5,15.5 C23.5,15.5 22.2900986,22.5980065 22.5,29 C22.6234319,32.7646732 24.5,38 24.5,38 L18,46 Z" id="Path-3" fill="#306C3C" mask="url(#mask-2)"></path>
            <path d="M20,49 C20,49 20.582487,36.1725911 21.5,29.75 C22.4158203,23.3392578 25.5,18.5 25.5,18.5 C25.5,18.5 24.2900986,25.5980065 24.5,32 C24.6234319,35.7646732 26.5,41 26.5,41 L20,49 Z" id="Path-3" fill="#2D793C" mask="url(#mask-2)"></path>
            <path d="M22,48 C22,48 22.582487,35.1725911 23.5,28.75 C24.4158203,22.3392578 27.5,17.5 27.5,17.5 C27.5,17.5 26.2900986,24.5980065 26.5,31 C26.6234319,34.7646732 28.5,40 28.5,40 L22,48 Z" id="Path-3" fill="#358B46" mask="url(#mask-2)"></path>
            <path d="M25,45 C25,45 25.582487,32.1725911 26.5,25.75 C27.4158203,19.3392578 30.5,14.5 30.5,14.5 C30.5,14.5 29.2900986,21.5980065 29.5,28 C29.6234319,31.7646732 31.5,37 31.5,37 L25,45 Z" id="Path-3" fill="#2D793D" mask="url(#mask-2)"></path>
            <path d="M27,48 C27,48 27.582487,35.1725911 28.5,28.75 C29.4158203,22.3392578 32.5,17.5 32.5,17.5 C32.5,17.5 31.2900986,24.5980065 31.5,31 C31.6234319,34.7646732 33.5,40 33.5,40 L27,48 Z" id="Path-3" fill="#2D793C" mask="url(#mask-2)"></path>
            <path d="M29,46 C29,46 29.582487,33.1725911 30.5,26.75 C31.4158203,20.3392578 34.5,15.5 34.5,15.5 C34.5,15.5 33.2900986,22.5980065 33.5,29 C33.6234319,32.7646732 35.5,38 35.5,38 L29,46 Z" id="Path-3" fill="#2D793D" mask="url(#mask-2)"></path>
            <path d="M31,48 C31,48 31.582487,35.1725911 32.5,28.75 C33.4158203,22.3392578 36.5,17.5 36.5,17.5 C36.5,17.5 35.2900986,24.5980065 35.5,31 C35.6234319,34.7646732 37.5,40 37.5,40 L31,48 Z" id="Path-3" fill="#306C3C" mask="url(#mask-2)"></path>
            <path d="M32,50 C32,50 32.582487,37.1725911 33.5,30.75 C34.4158203,24.3392578 37.5,19.5 37.5,19.5 C37.5,19.5 36.2900986,26.5980065 36.5,33 C36.6234319,36.7646732 38.5,42 38.5,42 L32,50 Z" id="Path-3" fill="#2D793D" mask="url(#mask-2)"></path>
            <path d="M36,51 C36,51 36.5083523,38.1725911 37.309091,31.75 C38.1083524,25.3392578 40.8000002,20.5 40.8000002,20.5 C40.8000002,20.5 39.7440862,27.5980065 39.9272729,34 C40.0349953,37.7646732 36,51 36,51 Z" id="Path-3" fill="#2D793C" mask="url(#mask-2)"></path>
            <path d="M34,47 C34,47 34.582487,34.1725911 35.5,27.75 C36.4158203,21.3392578 39.5,16.5 39.5,16.5 C39.5,16.5 38.2900986,23.5980065 38.5,30 C38.6234319,33.7646732 34,47 34,47 Z" id="Path-3" fill="#2D793C" mask="url(#mask-2)"></path>
            <path d="M3.29610819,48 C3.29610819,48 0.582486979,35.1725911 1.5,28.75 C2.41582031,22.3392578 5.5,17.5 5.5,17.5 C5.5,17.5 4.29009857,24.5980065 4.5,31 C4.62343191,34.7646732 3.29610819,48 3.29610819,48 Z" id="Path-3" fill="#2D793C" mask="url(#mask-2)"></path>
            <path d="M1.51159685,46 C1.51159685,46 -0.554293705,33.1725911 0.144212584,26.75 C0.841430207,20.3392578 3.18942839,15.5 3.18942839,15.5 C3.18942839,15.5 2.26832565,22.5980065 2.42812444,29 C2.52209364,32.7646732 1.51159685,46 1.51159685,46 Z" id="Path-3" fill="#2D793C" mask="url(#mask-2)"></path>
            <path d="M1,60 C1,60 1.58248698,47.1725911 2.5,40.75 C3.41582031,34.3392578 6.5,29.5 6.5,29.5 C6.5,29.5 5.29009857,36.5980065 5.5,43 C5.62343191,46.7646732 7.5,52 7.5,52 L1,60 Z" id="Path-3" fill="#358B46" mask="url(#mask-2)"></path>
            <path d="M4,57 C4,57 4.58248698,44.1725911 5.5,37.75 C6.41582031,31.3392578 9.5,26.5 9.5,26.5 C9.5,26.5 8.29009857,33.5980065 8.5,40 C8.62343191,43.7646732 10.5,49 10.5,49 L4,57 Z" id="Path-3" fill="#2D793D" mask="url(#mask-2)"></path>
            <path d="M6,59 C6,59 6.58248698,46.1725911 7.5,39.75 C8.41582031,33.3392578 11.5,28.5 11.5,28.5 C11.5,28.5 10.2900986,35.5980065 10.5,42 C10.6234319,45.7646732 12.5,51 12.5,51 L6,59 Z" id="Path-3" fill="#358B46" mask="url(#mask-2)"></path>
            <path d="M9,55 C9,55 9.58248698,42.1725911 10.5,35.75 C11.4158203,29.3392578 14.5,24.5 14.5,24.5 C14.5,24.5 13.2900986,31.5980065 13.5,38 C13.6234319,41.7646732 15.5,47 15.5,47 L9,55 Z" id="Path-3" fill="#358B46" mask="url(#mask-2)"></path>
            <path d="M10,60 C10,60 10.582487,47.1725911 11.5,40.75 C12.4158203,34.3392578 15.5,29.5 15.5,29.5 C15.5,29.5 14.2900986,36.5980065 14.5,43 C14.6234319,46.7646732 16.5,52 16.5,52 L10,60 Z" id="Path-3" fill="#306C3C" mask="url(#mask-2)"></path>
            <path d="M13,57 C13,57 13.582487,44.1725911 14.5,37.75 C15.4158203,31.3392578 18.5,26.5 18.5,26.5 C18.5,26.5 17.2900986,33.5980065 17.5,40 C17.6234319,43.7646732 19.5,49 19.5,49 L13,57 Z" id="Path-3" fill="#358B46" mask="url(#mask-2)"></path>
            <path d="M15,59 C15,59 15.582487,46.1725911 16.5,39.75 C17.4158203,33.3392578 20.5,28.5 20.5,28.5 C20.5,28.5 19.2900986,35.5980065 19.5,42 C19.6234319,45.7646732 21.5,51 21.5,51 L15,59 Z" id="Path-3" fill="#306C3C" mask="url(#mask-2)"></path>
            <path d="M18,56 C18,56 18.582487,43.1725911 19.5,36.75 C20.4158203,30.3392578 23.5,25.5 23.5,25.5 C23.5,25.5 22.2900986,32.5980065 22.5,39 C22.6234319,42.7646732 24.5,48 24.5,48 L18,56 Z" id="Path-3" fill="#2D793D" mask="url(#mask-2)"></path>
            <path d="M20,59 C20,59 20.582487,46.1725911 21.5,39.75 C22.4158203,33.3392578 25.5,28.5 25.5,28.5 C25.5,28.5 24.2900986,35.5980065 24.5,42 C24.6234319,45.7646732 26.5,51 26.5,51 L20,59 Z" id="Path-3" fill="#358B46" mask="url(#mask-2)"></path>
            <path d="M22,58 C22,58 22.582487,45.1725911 23.5,38.75 C24.4158203,32.3392578 27.5,27.5 27.5,27.5 C27.5,27.5 26.2900986,34.5980065 26.5,41 C26.6234319,44.7646732 28.5,50 28.5,50 L22,58 Z" id="Path-3" fill="#306C3C" mask="url(#mask-2)"></path>
            <path d="M25,55 C25,55 25.582487,42.1725911 26.5,35.75 C27.4158203,29.3392578 30.5,24.5 30.5,24.5 C30.5,24.5 29.2900986,31.5980065 29.5,38 C29.6234319,41.7646732 31.5,47 31.5,47 L25,55 Z" id="Path-3" fill="#2D793D" mask="url(#mask-2)"></path>
            <path d="M27,58 C27,58 27.582487,45.1725911 28.5,38.75 C29.4158203,32.3392578 32.5,27.5 32.5,27.5 C32.5,27.5 31.2900986,34.5980065 31.5,41 C31.6234319,44.7646732 33.5,50 33.5,50 L27,58 Z" id="Path-3" fill="#306C3C" mask="url(#mask-2)"></path>
            <path d="M29,56 C29,56 29.582487,43.1725911 30.5,36.75 C31.4158203,30.3392578 34.5,25.5 34.5,25.5 C34.5,25.5 33.2900986,32.5980065 33.5,39 C33.6234319,42.7646732 35.5,48 35.5,48 L29,56 Z" id="Path-3" fill="#306C3C" mask="url(#mask-2)"></path>
            <path d="M31,58 C31,58 31.582487,45.1725911 32.5,38.75 C33.4158203,32.3392578 36.5,27.5 36.5,27.5 C36.5,27.5 35.2900986,34.5980065 35.5,41 C35.6234319,44.7646732 37.5,50 37.5,50 L31,58 Z" id="Path-3" fill="#358B46" mask="url(#mask-2)"></path>
            <path d="M32,60 C32,60 32.582487,47.1725911 33.5,40.75 C34.4158203,34.3392578 37.5,29.5 37.5,29.5 C37.5,29.5 36.2900986,36.5980065 36.5,43 C36.6234319,46.7646732 38.5,52 38.5,52 L32,60 Z" id="Path-3" fill="#358B46" mask="url(#mask-2)"></path>
            <path d="M36,61 C36,61 36.5083523,48.1725911 37.309091,41.75 C38.1083524,35.3392578 40.8000002,30.5 40.8000002,30.5 C40.8000002,30.5 39.7440862,37.5980065 39.9272729,44 C40.0349953,47.7646732 36,61 36,61 Z" id="Path-3" fill="#358B46" mask="url(#mask-2)"></path>
            <path d="M34,57 C34,57 34.582487,44.1725911 35.5,37.75 C36.4158203,31.3392578 39.5,26.5 39.5,26.5 C39.5,26.5 38.2900986,33.5980065 38.5,40 C38.6234319,43.7646732 34,57 34,57 Z" id="Path-3" fill="#306C3C" mask="url(#mask-2)"></path>
            <path d="M3.29610819,58 C3.29610819,58 0.582486979,45.1725911 1.5,38.75 C2.41582031,32.3392578 5.5,27.5 5.5,27.5 C5.5,27.5 4.29009857,34.5980065 4.5,41 C4.62343191,44.7646732 3.29610819,58 3.29610819,58 Z" id="Path-3" fill="#2D793D" mask="url(#mask-2)"></path>
            <path d="M1.51159685,56 C1.51159685,56 -0.554293705,43.1725911 0.144212584,36.75 C0.841430207,30.3392578 3.18942839,25.5 3.18942839,25.5 C3.18942839,25.5 2.26832565,32.5980065 2.42812444,39 C2.52209364,42.7646732 1.51159685,56 1.51159685,56 Z" id="Path-3" fill="#358B46" mask="url(#mask-2)"></path>
            <path d="M1,70 C1,70 1.58248698,57.1725911 2.5,50.75 C3.41582031,44.3392578 6.5,39.5 6.5,39.5 C6.5,39.5 5.29009857,46.5980065 5.5,53 C5.62343191,56.7646732 7.5,62 7.5,62 L1,70 Z" id="Path-3" fill="#306C3C" mask="url(#mask-2)"></path>
            <path d="M4,67 C4,67 4.58248698,54.1725911 5.5,47.75 C6.41582031,41.3392578 9.5,36.5 9.5,36.5 C9.5,36.5 8.29009857,43.5980065 8.5,50 C8.62343191,53.7646732 10.5,59 10.5,59 L4,67 Z" id="Path-3" fill="#306C3C" mask="url(#mask-2)"></path>
            <path d="M6,69 C6,69 6.58248698,56.1725911 7.5,49.75 C8.41582031,43.3392578 11.5,38.5 11.5,38.5 C11.5,38.5 10.2900986,45.5980065 10.5,52 C10.6234319,55.7646732 12.5,61 12.5,61 L6,69 Z" id="Path-3" fill="#2D793D" mask="url(#mask-2)"></path>
            <path d="M9,65 C9,65 9.58248698,52.1725911 10.5,45.75 C11.4158203,39.3392578 14.5,34.5 14.5,34.5 C14.5,34.5 13.2900986,41.5980065 13.5,48 C13.6234319,51.7646732 15.5,57 15.5,57 L9,65 Z" id="Path-3" fill="#2D793D" mask="url(#mask-2)"></path>
            <path d="M10,70 C10,70 10.582487,57.1725911 11.5,50.75 C12.4158203,44.3392578 15.5,39.5 15.5,39.5 C15.5,39.5 14.2900986,46.5980065 14.5,53 C14.6234319,56.7646732 16.5,62 16.5,62 L10,70 Z" id="Path-3" fill="#2D793D" mask="url(#mask-2)"></path>
            <path d="M13,67 C13,67 13.582487,54.1725911 14.5,47.75 C15.4158203,41.3392578 18.5,36.5 18.5,36.5 C18.5,36.5 17.2900986,43.5980065 17.5,50 C17.6234319,53.7646732 19.5,59 19.5,59 L13,67 Z" id="Path-3" fill="#358B46" mask="url(#mask-2)"></path>
            <path d="M15,69 C15,69 15.582487,56.1725911 16.5,49.75 C17.4158203,43.3392578 20.5,38.5 20.5,38.5 C20.5,38.5 19.2900986,45.5980065 19.5,52 C19.6234319,55.7646732 21.5,61 21.5,61 L15,69 Z" id="Path-3" fill="#358B46" mask="url(#mask-2)"></path>
            <path d="M18,66 C18,66 18.582487,53.1725911 19.5,46.75 C20.4158203,40.3392578 23.5,35.5 23.5,35.5 C23.5,35.5 22.2900986,42.5980065 22.5,49 C22.6234319,52.7646732 24.5,58 24.5,58 L18,66 Z" id="Path-3" fill="#2D793D" mask="url(#mask-2)"></path>
            <path d="M20,69 C20,69 20.582487,56.1725911 21.5,49.75 C22.4158203,43.3392578 25.5,38.5 25.5,38.5 C25.5,38.5 24.2900986,45.5980065 24.5,52 C24.6234319,55.7646732 26.5,61 26.5,61 L20,69 Z" id="Path-3" fill="#2D793D" mask="url(#mask-2)"></path>
            <path d="M22,68 C22,68 22.582487,55.1725911 23.5,48.75 C24.4158203,42.3392578 27.5,37.5 27.5,37.5 C27.5,37.5 26.2900986,44.5980065 26.5,51 C26.6234319,54.7646732 28.5,60 28.5,60 L22,68 Z" id="Path-3" fill="#306C3C" mask="url(#mask-2)"></path>
            <path d="M25,65 C25,65 25.582487,52.1725911 26.5,45.75 C27.4158203,39.3392578 30.5,34.5 30.5,34.5 C30.5,34.5 29.2900986,41.5980065 29.5,48 C29.6234319,51.7646732 31.5,57 31.5,57 L25,65 Z" id="Path-3" fill="#2D793D" mask="url(#mask-2)"></path>
            <path d="M27,68 C27,68 27.582487,55.1725911 28.5,48.75 C29.4158203,42.3392578 32.5,37.5 32.5,37.5 C32.5,37.5 31.2900986,44.5980065 31.5,51 C31.6234319,54.7646732 33.5,60 33.5,60 L27,68 Z" id="Path-3" fill="#2D793D" mask="url(#mask-2)"></path>
            <path d="M29,66 C29,66 29.582487,53.1725911 30.5,46.75 C31.4158203,40.3392578 34.5,35.5 34.5,35.5 C34.5,35.5 33.2900986,42.5980065 33.5,49 C33.6234319,52.7646732 35.5,58 35.5,58 L29,66 Z" id="Path-3" fill="#2D793D" mask="url(#mask-2)"></path>
            <path d="M31,68 C31,68 31.582487,55.1725911 32.5,48.75 C33.4158203,42.3392578 36.5,37.5 36.5,37.5 C36.5,37.5 35.2900986,44.5980065 35.5,51 C35.6234319,54.7646732 37.5,60 37.5,60 L31,68 Z" id="Path-3" fill="#306C3C" mask="url(#mask-2)"></path>
            <path d="M32,70 C32,70 32.582487,57.1725911 33.5,50.75 C34.4158203,44.3392578 37.5,39.5 37.5,39.5 C37.5,39.5 36.2900986,46.5980065 36.5,53 C36.6234319,56.7646732 38.5,62 38.5,62 L32,70 Z" id="Path-3" fill="#306C3C" mask="url(#mask-2)"></path>
            <path d="M36,71 C36,71 36.5083523,58.1725911 37.309091,51.75 C38.1083524,45.3392578 40.8000002,40.5 40.8000002,40.5 C40.8000002,40.5 39.7440862,47.5980065 39.9272729,54 C40.0349953,57.7646732 36,71 36,71 Z" id="Path-3" fill="#306C3C" mask="url(#mask-2)"></path>
            <path d="M34,67 C34,67 34.582487,54.1725911 35.5,47.75 C36.4158203,41.3392578 39.5,36.5 39.5,36.5 C39.5,36.5 38.2900986,43.5980065 38.5,50 C38.6234319,53.7646732 34,67 34,67 Z" id="Path-3" fill="#306C3C" mask="url(#mask-2)"></path>
            <path d="M3.29610819,68 C3.29610819,68 0.582486979,55.1725911 1.5,48.75 C2.41582031,42.3392578 5.5,37.5 5.5,37.5 C5.5,37.5 4.29009857,44.5980065 4.5,51 C4.62343191,54.7646732 3.29610819,68 3.29610819,68 Z" id="Path-3" fill="#2D793D" mask="url(#mask-2)"></path>
            <path d="M1.51159685,66 C1.51159685,66 -0.554293705,53.1725911 0.144212584,46.75 C0.841430207,40.3392578 3.18942839,35.5 3.18942839,35.5 C3.18942839,35.5 2.26832565,42.5980065 2.42812444,49 C2.52209364,52.7646732 1.51159685,66 1.51159685,66 Z" id="Path-3" fill="#2D793D" mask="url(#mask-2)"></path>
        </g>
        <rect id="Rectangle-2" fill="#000000" opacity="0.0680970149" x="0" y="8" width="40" height="40"></rect>
    </g>
</svg>